<svg width="578" height="584" viewBox="0 0 578 584" fill="none" xmlns="http://www.w3.org/2000/svg">
<path d="M150 262.067V316.261C149.994 325.944 151.9 335.534 155.61 344.481C159.321 353.429 164.762 361.559 171.623 368.408C178.483 375.256 186.63 380.688 195.596 384.393C204.561 388.098 214.171 390.003 223.876 390H353.773C373.408 390.019 392.249 382.266 406.164 368.443C420.079 354.619 427.932 335.853 428 316.261V262.067C427.944 242.44 420.106 223.633 406.198 209.755C392.29 195.877 373.442 188.056 353.773 188H223.876C204.245 188.074 185.444 195.913 171.596 209.797C157.747 223.681 149.981 242.478 150 262.067V262.067ZM223.876 362.389C211.642 362.309 199.933 357.423 191.284 348.789C182.636 340.154 177.745 328.468 177.671 316.261V262.067C177.745 249.859 182.636 238.173 191.284 229.539C199.933 220.905 211.642 216.018 223.876 215.939H353.773C366.028 215.957 377.775 220.823 386.44 229.47C395.106 238.116 399.982 249.838 400.001 262.067V316.261C399.982 328.489 395.106 340.211 386.44 348.858C377.775 357.504 366.028 362.37 353.773 362.389H223.876Z" fill="url(#paint0_linear_37_240)"/>
<defs>
<linearGradient id="paint0_linear_37_240" x1="392.901" y1="209.042" x2="198.82" y2="389.483" gradientUnits="userSpaceOnUse">
<stop stop-color="#C051E7"/>
<stop offset="0.95" stop-color="#9EFD65"/>
</linearGradient>
</defs>
</svg>
