<svg width="1363" height="653" viewBox="0 0 1363 653" fill="none" xmlns="http://www.w3.org/2000/svg">
<g clip-path="url(#clip0_37_203)">
<path d="M324.63 283.9H245V328.54H256.81V295.71H314.7L337.3 328.54H352.57L329.67 295.28C329.96 295.28 330.25 295.14 330.54 295.14L331.11 294.99C337.495 293.418 343.082 289.561 346.815 284.148C350.549 278.736 352.17 272.143 351.372 265.617C350.574 259.09 347.412 253.082 342.485 248.728C337.557 244.375 331.205 241.978 324.63 241.99H245V253.99H324.63C328.608 253.99 332.424 255.57 335.237 258.383C338.05 261.196 339.63 265.012 339.63 268.99V269.13C339.57 273.068 337.963 276.825 335.156 279.588C332.35 282.352 328.569 283.9 324.63 283.9ZM486 328.4H500.4L440.64 242H427.26L367.64 328.4H382L434 253.23L477.78 316.59H416.31L408.83 328.4H486ZM523.44 242V328.4H535.25V242H523.44ZM558.32 242V328.4H570.13V252.66L644.58 328.4H662.73V242H650.92V317.89L576.33 242H558.32ZM685.72 291.25H767C768.664 291.25 770.311 291.578 771.849 292.214C773.386 292.851 774.783 293.784 775.959 294.961C777.136 296.137 778.069 297.534 778.706 299.071C779.342 300.609 779.67 302.256 779.67 303.92C779.67 305.584 779.342 307.231 778.706 308.769C778.069 310.306 777.136 311.703 775.959 312.879C774.783 314.056 773.386 314.989 771.849 315.626C770.311 316.262 768.664 316.59 767 316.59H685.73V328.4H767C772.167 328.423 777.208 326.812 781.405 323.798C785.601 320.785 788.738 316.522 790.367 311.619C791.997 306.716 792.035 301.423 790.476 296.497C788.918 291.571 785.843 287.264 781.69 284.19L781.4 283.9C780.54 283.47 779.82 282.9 778.95 282.46C779.473 281.924 779.955 281.349 780.39 280.74L780.82 279.87C783.434 275.946 784.826 271.335 784.82 266.62C784.796 260.096 782.193 253.846 777.579 249.234C772.965 244.621 766.714 242.021 760.19 242H685.73V254H760.18C763.48 254.093 766.614 255.469 768.915 257.836C771.216 260.203 772.504 263.374 772.504 266.675C772.504 269.976 771.216 273.147 768.915 275.514C766.614 277.881 763.48 279.257 760.18 279.35H685.73L685.72 291.25ZM1021.62 286.06L1002.18 319.76L957.26 242H943.58L993.4 328.4H1010.83L1028.54 297.87L1034.73 308.82H1034.87L1046.25 328.4H1063.67L1113.5 242H1099.82L1054.89 319.76L1048.55 308.82L1048.27 308.38L1028.54 274.11L1010 242H996.32L1021.62 286.06Z" fill="white"/>
<path d="M814.83 273.68V296.86C814.827 301.002 815.641 305.103 817.225 308.931C818.808 312.758 821.13 316.235 824.058 319.164C826.987 322.094 830.463 324.417 834.29 326.002C838.117 327.586 842.218 328.401 846.36 328.4H901.8C910.18 328.408 918.222 325.092 924.161 319.179C930.099 313.267 933.451 305.24 933.48 296.86V273.68C933.456 265.285 930.111 257.241 924.175 251.305C918.239 245.369 910.195 242.024 901.8 242H846.36C837.982 242.032 829.957 245.384 824.047 251.323C818.137 257.262 814.822 265.301 814.83 273.68V273.68ZM846.36 316.59C841.139 316.556 836.141 314.466 832.45 310.773C828.759 307.08 826.671 302.081 826.64 296.86V273.68C826.671 268.459 828.759 263.46 832.45 259.767C836.141 256.074 841.139 253.984 846.36 253.95H901.8C907.03 253.958 912.044 256.039 915.742 259.738C919.441 263.436 921.522 268.45 921.53 273.68V296.86C921.522 302.09 919.441 307.104 915.742 310.802C912.044 314.501 907.03 316.582 901.8 316.59H846.36Z" fill="url(#paint0_linear_37_203)"/>
<path d="M321.139 410C320.695 410 320.325 409.852 320.029 409.556C319.733 409.26 319.585 408.902 319.585 408.483V385.617H322.73V408.483C322.73 408.902 322.582 409.26 322.286 409.556C321.99 409.852 321.608 410 321.139 410ZM312.555 386.912C312.136 386.912 311.778 386.789 311.482 386.542C311.211 386.271 311.075 385.925 311.075 385.506C311.075 385.087 311.211 384.754 311.482 384.507C311.778 384.236 312.136 384.1 312.555 384.1H329.76C330.179 384.1 330.537 384.236 330.833 384.507C331.129 384.754 331.277 385.087 331.277 385.506C331.277 385.95 331.129 386.295 330.833 386.542C330.537 386.789 330.179 386.912 329.76 386.912H312.555ZM389.194 384.1H402.366C402.786 384.1 403.143 384.236 403.439 384.507C403.735 384.778 403.883 385.124 403.883 385.543C403.883 385.962 403.735 386.308 403.439 386.579C403.143 386.826 402.786 386.949 402.366 386.949H390.452L390.785 386.32V395.681L390.415 395.274H400.701C401.121 395.274 401.478 395.41 401.774 395.681C402.07 395.952 402.218 396.298 402.218 396.717C402.218 397.136 402.07 397.482 401.774 397.753C401.478 398 401.121 398.123 400.701 398.123H390.526L390.785 397.79V407.373L390.563 407.114H402.366C402.786 407.114 403.143 407.262 403.439 407.558C403.735 407.854 403.883 408.187 403.883 408.557C403.883 408.976 403.735 409.322 403.439 409.593C403.143 409.864 402.786 410 402.366 410H389.194C388.775 410 388.417 409.852 388.121 409.556C387.85 409.26 387.714 408.902 387.714 408.483V385.58C387.714 385.161 387.85 384.815 388.121 384.544C388.417 384.248 388.775 384.1 389.194 384.1ZM479.449 385.802C479.868 386.024 480.102 386.357 480.152 386.801C480.226 387.245 480.115 387.652 479.819 388.022C479.597 388.343 479.313 388.515 478.968 388.54C478.622 388.565 478.277 388.491 477.932 388.318C477.118 387.825 476.242 387.442 475.305 387.171C474.367 386.875 473.381 386.727 472.345 386.727C470.889 386.727 469.557 386.986 468.349 387.504C467.14 387.997 466.092 388.7 465.204 389.613C464.316 390.526 463.625 391.611 463.132 392.869C462.638 394.127 462.392 395.521 462.392 397.05C462.392 398.678 462.651 400.133 463.169 401.416C463.687 402.699 464.39 403.796 465.278 404.709C466.19 405.597 467.239 406.275 468.423 406.744C469.631 407.213 470.939 407.447 472.345 407.447C473.356 407.447 474.33 407.311 475.268 407.04C476.205 406.769 477.093 406.374 477.932 405.856C478.277 405.683 478.622 405.622 478.968 405.671C479.313 405.72 479.609 405.893 479.856 406.189C480.152 406.584 480.263 407.003 480.189 407.447C480.115 407.866 479.88 408.175 479.486 408.372C478.869 408.742 478.166 409.087 477.377 409.408C476.587 409.704 475.761 409.938 474.898 410.111C474.059 410.284 473.208 410.37 472.345 410.37C470.569 410.37 468.891 410.062 467.313 409.445C465.734 408.828 464.34 407.94 463.132 406.781C461.923 405.622 460.961 404.228 460.246 402.6C459.555 400.947 459.21 399.097 459.21 397.05C459.21 395.126 459.543 393.362 460.209 391.759C460.875 390.156 461.8 388.762 462.984 387.578C464.192 386.394 465.586 385.469 467.165 384.803C468.768 384.137 470.495 383.804 472.345 383.804C473.627 383.804 474.873 383.977 476.082 384.322C477.315 384.667 478.437 385.161 479.449 385.802ZM538.188 384.1C538.607 384.1 538.965 384.248 539.261 384.544C539.557 384.815 539.705 385.173 539.705 385.617V408.483C539.705 408.902 539.544 409.26 539.224 409.556C538.928 409.852 538.57 410 538.151 410C537.682 410 537.312 409.852 537.041 409.556C536.769 409.26 536.634 408.902 536.634 408.483V385.617C536.634 385.173 536.782 384.815 537.078 384.544C537.374 384.248 537.744 384.1 538.188 384.1ZM555.245 384.1C555.689 384.1 556.046 384.248 556.318 384.544C556.614 384.815 556.762 385.173 556.762 385.617V408.483C556.762 408.902 556.614 409.26 556.318 409.556C556.022 409.852 555.652 410 555.208 410C554.788 410 554.431 409.852 554.135 409.556C553.839 409.26 553.691 408.902 553.691 408.483V385.617C553.691 385.173 553.839 384.815 554.135 384.544C554.455 384.248 554.825 384.1 555.245 384.1ZM538.04 395.385H555.282L555.245 398.271H537.929L538.04 395.385ZM634.414 384.1C634.834 384.1 635.167 384.236 635.413 384.507C635.66 384.754 635.783 385.074 635.783 385.469V408.446C635.783 408.915 635.635 409.297 635.339 409.593C635.043 409.864 634.686 410 634.266 410C634.044 410 633.822 409.963 633.6 409.889C633.378 409.79 633.206 409.667 633.082 409.519L617.246 388.577L617.986 388.133V408.631C617.986 409.026 617.851 409.359 617.579 409.63C617.333 409.877 617 410 616.58 410C616.186 410 615.865 409.877 615.618 409.63C615.372 409.359 615.248 409.026 615.248 408.631V385.58C615.248 385.136 615.384 384.778 615.655 384.507C615.951 384.236 616.297 384.1 616.691 384.1C616.913 384.1 617.135 384.149 617.357 384.248C617.604 384.322 617.789 384.445 617.912 384.618L633.526 405.264L633.045 405.856V385.469C633.045 385.074 633.169 384.754 633.415 384.507C633.687 384.236 634.02 384.1 634.414 384.1ZM717.608 397.05C717.608 398.949 717.299 400.713 716.683 402.341C716.066 403.944 715.203 405.35 714.093 406.559C712.983 407.768 711.663 408.705 710.134 409.371C708.604 410.037 706.939 410.37 705.139 410.37C703.313 410.37 701.636 410.037 700.107 409.371C698.602 408.705 697.295 407.768 696.185 406.559C695.075 405.35 694.211 403.944 693.595 402.341C692.978 400.713 692.67 398.949 692.67 397.05C692.67 395.126 692.978 393.362 693.595 391.759C694.211 390.131 695.075 388.725 696.185 387.541C697.295 386.332 698.602 385.395 700.107 384.729C701.636 384.063 703.313 383.73 705.139 383.73C706.939 383.73 708.604 384.063 710.134 384.729C711.663 385.395 712.983 386.332 714.093 387.541C715.203 388.725 716.066 390.131 716.683 391.759C717.299 393.362 717.608 395.126 717.608 397.05ZM714.426 397.05C714.426 395.027 714.019 393.239 713.205 391.685C712.415 390.131 711.33 388.91 709.949 388.022C708.567 387.134 706.964 386.69 705.139 386.69C703.313 386.69 701.698 387.134 700.292 388.022C698.91 388.91 697.825 390.131 697.036 391.685C696.246 393.239 695.852 395.027 695.852 397.05C695.852 399.048 696.246 400.836 697.036 402.415C697.825 403.969 698.91 405.19 700.292 406.078C701.698 406.966 703.313 407.41 705.139 407.41C706.964 407.41 708.567 406.966 709.949 406.078C711.33 405.19 712.415 403.969 713.205 402.415C714.019 400.836 714.426 399.048 714.426 397.05ZM788.784 407.077C789.203 407.077 789.561 407.225 789.857 407.521C790.153 407.792 790.301 408.138 790.301 408.557C790.301 408.976 790.153 409.322 789.857 409.593C789.561 409.864 789.203 410 788.784 410H775.982C775.562 410 775.205 409.852 774.909 409.556C774.637 409.26 774.502 408.902 774.502 408.483V385.58C774.502 385.161 774.65 384.815 774.946 384.544C775.242 384.248 775.612 384.1 776.056 384.1C776.475 384.1 776.833 384.248 777.129 384.544C777.425 384.815 777.573 385.161 777.573 385.58V407.743L776.833 407.077H788.784ZM869.526 397.05C869.526 398.949 869.218 400.713 868.601 402.341C867.984 403.944 867.121 405.35 866.011 406.559C864.901 407.768 863.581 408.705 862.052 409.371C860.523 410.037 858.858 410.37 857.057 410.37C855.232 410.37 853.554 410.037 852.025 409.371C850.52 408.705 849.213 407.768 848.103 406.559C846.993 405.35 846.13 403.944 845.513 402.341C844.896 400.713 844.588 398.949 844.588 397.05C844.588 395.126 844.896 393.362 845.513 391.759C846.13 390.131 846.993 388.725 848.103 387.541C849.213 386.332 850.52 385.395 852.025 384.729C853.554 384.063 855.232 383.73 857.057 383.73C858.858 383.73 860.523 384.063 862.052 384.729C863.581 385.395 864.901 386.332 866.011 387.541C867.121 388.725 867.984 390.131 868.601 391.759C869.218 393.362 869.526 395.126 869.526 397.05ZM866.344 397.05C866.344 395.027 865.937 393.239 865.123 391.685C864.334 390.131 863.248 388.91 861.867 388.022C860.486 387.134 858.882 386.69 857.057 386.69C855.232 386.69 853.616 387.134 852.21 388.022C850.829 388.91 849.743 390.131 848.954 391.685C848.165 393.239 847.77 395.027 847.77 397.05C847.77 399.048 848.165 400.836 848.954 402.415C849.743 403.969 850.829 405.19 852.21 406.078C853.616 406.966 855.232 407.41 857.057 407.41C858.882 407.41 860.486 406.966 861.867 406.078C863.248 405.19 864.334 403.969 865.123 402.415C865.937 400.836 866.344 399.048 866.344 397.05ZM938.223 410.37C936.323 410.37 934.56 410.037 932.932 409.371C931.328 408.68 929.91 407.731 928.677 406.522C927.468 405.313 926.518 403.907 925.828 402.304C925.162 400.676 924.829 398.925 924.829 397.05C924.829 395.151 925.162 393.399 925.828 391.796C926.518 390.168 927.468 388.75 928.677 387.541C929.91 386.332 931.328 385.395 932.932 384.729C934.56 384.063 936.323 383.73 938.223 383.73C939.481 383.73 940.689 383.878 941.849 384.174C943.033 384.445 944.106 384.877 945.068 385.469C945.314 385.592 945.487 385.765 945.586 385.987C945.709 386.209 945.771 386.443 945.771 386.69C945.771 387.109 945.623 387.467 945.327 387.763C945.055 388.059 944.735 388.207 944.365 388.207C944.217 388.207 944.069 388.182 943.921 388.133C943.797 388.084 943.662 388.034 943.514 387.985C942.749 387.59 941.923 387.282 941.035 387.06C940.147 386.813 939.209 386.69 938.223 386.69C936.274 386.69 934.523 387.146 932.969 388.059C931.439 388.972 930.231 390.205 929.343 391.759C928.455 393.313 928.011 395.077 928.011 397.05C928.011 398.999 928.455 400.762 929.343 402.341C930.231 403.895 931.439 405.128 932.969 406.041C934.523 406.954 936.274 407.41 938.223 407.41C939.209 407.41 940.221 407.274 941.257 407.003C942.317 406.732 943.218 406.386 943.958 405.967L943.699 406.855V399.048L944.291 399.566H938.63C938.21 399.566 937.853 399.43 937.557 399.159C937.285 398.863 937.15 398.505 937.15 398.086C937.15 397.667 937.285 397.321 937.557 397.05C937.853 396.754 938.21 396.606 938.63 396.606H945.364C945.808 396.606 946.165 396.754 946.437 397.05C946.708 397.346 946.844 397.704 946.844 398.123V406.67C946.844 406.966 946.77 407.225 946.622 407.447C946.498 407.669 946.326 407.854 946.104 408.002C944.994 408.717 943.76 409.297 942.404 409.741C941.072 410.16 939.678 410.37 938.223 410.37ZM1018.99 383.952C1019.41 383.952 1019.75 384.112 1020.03 384.433C1020.32 384.729 1020.47 385.074 1020.47 385.469C1020.47 385.617 1020.45 385.777 1020.4 385.95C1020.37 386.098 1020.31 386.246 1020.21 386.394L1011.63 398.345L1012.11 396.532V408.483C1012.11 408.902 1011.96 409.26 1011.66 409.556C1011.39 409.852 1011.06 410 1010.67 410C1010.22 410 1009.85 409.852 1009.56 409.556C1009.28 409.26 1009.15 408.902 1009.15 408.483V396.828L1009.41 397.79L1001.08 386.542C1000.93 386.345 1000.82 386.16 1000.75 385.987C1000.7 385.79 1000.68 385.605 1000.68 385.432C1000.68 385.013 1000.85 384.667 1001.19 384.396C1001.54 384.1 1001.88 383.952 1002.23 383.952C1002.72 383.952 1003.13 384.186 1003.45 384.655L1011.11 395.163L1010.41 395.052L1017.77 384.692C1018.09 384.199 1018.5 383.952 1018.99 383.952Z" fill="white"/>
</g>
<defs>
<linearGradient id="paint0_linear_37_203" x1="918.5" y1="251" x2="835.5" y2="328" gradientUnits="userSpaceOnUse">
<stop stop-color="#C051E7"/>
<stop offset="0.95" stop-color="#9EFD65"/>
</linearGradient>
<clipPath id="clip0_37_203">
<rect width="889" height="168" fill="white" transform="translate(237 242)"/>
</clipPath>
</defs>
</svg>
